<svg xmlns="http://www.w3.org/2000/svg" viewBox="0 0 524.41 963.78"><defs><style>.cls-1,.cls-6{fill:#fff;}.cls-2,.cls-5{fill:#191818;}.cls-3{fill:none;stroke:#191818;stroke-width:10px;}.cls-3,.cls-5{stroke-miterlimit:10;}.cls-4{fill:#c7c6c6;}.cls-5{stroke:#fff;stroke-width:3px;}.cls-6{font-size:39.5px;font-family:HelveticaNeueLTStd-Hv, Helvetica Neue LT Std;}</style></defs><title>Tavola disegno 1</title><g id="disegno"><polygon class="cls-1" points="5 958.78 5 593.48 325.03 593.48 325.03 5 519.41 5 519.41 958.78 5 958.78"/><path class="cls-2" d="M514.41,10V953.78H10V598.48H330V10H514.41m10-10H320V588.48H0v375.3H524.41V0Z"/><line class="cls-3" x1="200.01" y1="443.88" x2="200.01" y2="550.63"/><line class="cls-3" x1="220.86" y1="443.88" x2="220.86" y2="550.63"/><line class="cls-3" x1="241.72" y1="443.88" x2="241.72" y2="550.63"/><line class="cls-3" x1="262.57" y1="443.88" x2="262.57" y2="550.63"/><line class="cls-3" x1="283.42" y1="443.88" x2="283.42" y2="550.63"/></g><g id="locali_forum"><rect class="cls-4" x="69.29" y="551.91" width="117.55" height="221.5" transform="translate(790.72 534.6) rotate(90)"/><rect class="cls-4" x="135.3" y="218.27" width="574.63" height="171.22" transform="translate(726.49 -118.73) rotate(90)"/><rect class="cls-4" x="207.4" y="784.8" width="131.11" height="192.26" transform="translate(1153.89 607.98) rotate(90)"/><rect class="cls-4" x="379.85" y="817.74" width="131.11" height="126.38" transform="translate(1326.34 435.53) rotate(90)"/><rect class="cls-4" x="-19.01" y="763.77" width="219.04" height="146.4" transform="translate(927.47 746.46) rotate(90)"/></g><g id="lettere"><ellipse class="cls-5" cx="272.96" cy="880.93" rx="30.66" ry="30.77"/><text class="cls-6" transform="translate(258.19 893.92)">C</text><ellipse class="cls-5" cx="444.46" cy="880.93" rx="30.66" ry="30.77"/><text class="cls-6" transform="translate(431.54 893.92) scale(0.94 1)">D</text><ellipse class="cls-5" cx="422.73" cy="302.35" rx="30.66" ry="30.77"/><text class="cls-6" transform="translate(410.95 314.46)">E</text><ellipse class="cls-5" cx="90.51" cy="836.73" rx="30.66" ry="30.77"/><text class="cls-6" transform="translate(78.39 852.19)">B</text><ellipse class="cls-5" cx="128.06" cy="659.93" rx="30.66" ry="30.77"/><text class="cls-6" transform="translate(114.29 672.92)">A</text></g></svg>