<svg xmlns="http://www.w3.org/2000/svg" viewBox="0 0 524.41 525.78"><defs><style>.cls-1,.cls-4{fill:#191818;}.cls-2{fill:none;stroke:#191818;stroke-width:10px;}.cls-2,.cls-4{stroke-miterlimit:10;}.cls-3{fill:#c7c6c6;}.cls-4{stroke:#fff;stroke-width:3px;}.cls-5{font-size:39.46px;fill:#fff;font-family:HelveticaNeueLTStd-Hv, Helvetica Neue LT Std;}</style></defs><title>Tavola disegno 1</title><g id="lettere"><path class="cls-1" d="M10,160.64H514.41v355H10v-355m-10-10v375H524.41v-375Z"/><line class="cls-2" x1="200.01" y1="6.16" x2="200.01" y2="112.83"/><line class="cls-2" x1="220.86" y1="6.16" x2="220.86" y2="112.83"/><line class="cls-2" x1="241.72" y1="6.16" x2="241.72" y2="112.83"/><line class="cls-2" x1="262.57" y1="6.16" x2="262.57" y2="112.83"/><line class="cls-2" x1="283.42" y1="6.16" x2="283.42" y2="112.83"/><rect class="cls-3" x="201" y="162.29" width="139.49" height="153.91" transform="translate(509.99 -31.5) rotate(90)"/><ellipse class="cls-4" cx="270.75" cy="239.25" rx="30.66" ry="30.75"/><text class="cls-5" transform="translate(255.98 252.22)">C</text><rect class="cls-3" x="-74.54" y="257.1" width="338.98" height="163.78" transform="translate(433.94 244.04) rotate(90)"/><ellipse class="cls-4" cx="94.95" cy="338.99" rx="30.66" ry="30.75"/><text class="cls-5" transform="translate(81.18 351.97)">A</text><rect class="cls-3" x="187.12" y="326.57" width="182.99" height="180.83" transform="translate(695.6 138.37) rotate(90)"/><ellipse class="cls-4" cx="278.61" cy="416.99" rx="30.66" ry="30.75"/><text class="cls-5" transform="translate(266.49 432.44)">B</text><rect class="cls-3" x="280.91" y="279.47" width="338.98" height="119.04" transform="translate(789.39 -111.41) rotate(90)"/><ellipse class="cls-4" cx="450.4" cy="338.99" rx="30.66" ry="30.75"/><text class="cls-5" transform="translate(435.63 351.97)">D</text></g></svg>