<svg xmlns="http://www.w3.org/2000/svg" viewBox="0 0 524.41 963.78"><defs><style>.cls-1,.cls-3,.cls-6{fill:#fff;}.cls-2,.cls-5{fill:#191818;}.cls-3{stroke:#191818;stroke-width:10px;}.cls-3,.cls-5{stroke-miterlimit:10;}.cls-4{fill:#c7c6c6;}.cls-5{stroke:#fff;stroke-width:3px;}.cls-6{font-size:39.5px;font-family:HelveticaNeueLTStd-Hv, Helvetica Neue LT Std;}</style></defs><title>Tavola disegno 1</title><g id="lettere"><polygon class="cls-1" points="5 958.78 5 593.48 325.03 593.48 325.03 5 519.41 5 519.41 958.78 5 958.78"/><path class="cls-2" d="M514.41,10V953.78H10V598.48H330V10H514.41m10-10H320V588.48H0v375.3H524.41V0Z"/><line class="cls-3" x1="200.01" y1="443.88" x2="200.01" y2="550.63"/><line class="cls-3" x1="220.86" y1="443.88" x2="220.86" y2="550.63"/><line class="cls-3" x1="241.72" y1="443.88" x2="241.72" y2="550.63"/><line class="cls-3" x1="262.57" y1="443.88" x2="262.57" y2="550.63"/><line class="cls-3" x1="283.42" y1="443.88" x2="283.42" y2="550.63"/><rect class="cls-4" x="76.09" y="546.55" width="120.55" height="238.35" transform="translate(802.09 529.36) rotate(90)"/><ellipse class="cls-5" cx="136.37" cy="667.24" rx="30.66" ry="30.77"/><text class="cls-6" transform="translate(122.6 680.07)">A</text><rect class="cls-4" x="-20.47" y="777.66" width="205.93" height="130.6" transform="translate(925.46 760.47) rotate(90)"/><ellipse class="cls-5" cx="82.5" cy="840.84" rx="30.66" ry="30.77"/><text class="cls-6" transform="translate(68.29 853.61)">B</text><rect class="cls-4" x="328.54" y="768.54" width="210.17" height="146.61" transform="translate(1275.47 408.21) rotate(90)"/><ellipse class="cls-5" cx="433.63" cy="841.84" rx="30.66" ry="30.77"/><text class="cls-6" transform="translate(418.7 854.61)">C</text></g></svg>